<svg width="40" height="40" viewBox="0 0 40 40" fill="none" xmlns="http://www.w3.org/2000/svg">
<path d="M19.9991 25C14.7156 25 10.0171 27.5511 7.02576 31.5099C6.38194 32.362 6.06003 32.788 6.07056 33.3638C6.0787 33.8086 6.35803 34.3698 6.70804 34.6445C7.16108 35 7.78888 35 9.04449 35H30.9537C32.2093 35 32.8371 35 33.2902 34.6445C33.6402 34.3698 33.9195 33.8086 33.9276 33.3638C33.9382 32.788 33.6163 32.362 32.9724 31.5099C29.9811 27.5511 25.2826 25 19.9991 25Z" fill="#F6B83D" stroke="#F6B83D" stroke-width="2" stroke-linecap="round" stroke-linejoin="round"/>
<path d="M20 20C24.1421 20 27.5 16.6421 27.5 12.5C27.5 8.35786 24.1421 5 20 5C15.8579 5 12.5 8.35786 12.5 12.5C12.5 16.6421 15.8579 20 20 20Z" fill="#F6B83D" stroke="#F6B83D" stroke-width="2" stroke-linecap="round" stroke-linejoin="round"/>
</svg>
